<?xml version="1.0" encoding="UTF-8"?>
<svg width="600" height="400" viewBox="0 0 600 400" fill="none" xmlns="http://www.w3.org/2000/svg">
  <!-- Background -->
  <rect width="600" height="400" fill="#F8F9FA"/>
  
  <!-- Step 1: Upload -->
  <rect x="50" y="150" width="120" height="140" rx="10" fill="#2962FF" fill-opacity="0.1"/>
  <path d="M 110 200 L 110 180 M 95 195 L 110 180 L 125 195" stroke="#2962FF" stroke-width="3"/>
  <rect x="80" y="220" width="60" height="8" rx="4" fill="#2962FF"/>
  
  <!-- Arrow 1 -->
  <path d="M 170 220 L 230 220" stroke="#2962FF" stroke-width="2" stroke-dasharray="6 6"/>
  <path d="M 220 210 L 230 220 L 220 230" stroke="#2962FF" stroke-width="2"/>
  
  <!-- Step 2: QR Code -->
  <rect x="240" y="150" width="120" height="140" rx="10" fill="#2962FF" fill-opacity="0.1"/>
  <rect x="270" y="180" width="60" height="60" rx="5" fill="#2962FF"/>
  <rect x="280" y="220" width="40" height="8" rx="4" fill="#2962FF"/>
  
  <!-- Arrow 2 -->
  <path d="M 360 220 L 420 220" stroke="#2962FF" stroke-width="2" stroke-dasharray="6 6"/>
  <path d="M 410 210 L 420 220 L 410 230" stroke="#2962FF" stroke-width="2"/>
  
  <!-- Step 3: Download -->
  <rect x="430" y="150" width="120" height="140" rx="10" fill="#2962FF" fill-opacity="0.1"/>
  <path d="M 490 180 L 490 200 M 475 185 L 490 200 L 505 185" stroke="#2962FF" stroke-width="3"/>
  <rect x="460" y="220" width="60" height="8" rx="4" fill="#2962FF"/>
</svg> 